<svg xmlns:xlink="http://www.w3.org/1999/xlink" xmlns="http://www.w3.org/2000/svg" width="57" height="10" viewBox="0 0 57 10" fill="none">
<circle cx="4.75" cy="4.75" r="4.75" fill="#BA390C"/>
<circle cx="16.625" cy="4.75" r="4.75" fill="#BA390C"/>
<circle cx="28.5" cy="4.75" r="4.75" fill="#BA390C"/>
<circle cx="40.375" cy="4.75" r="4.75" fill="#BA390C"/>
<circle cx="52.25" cy="4.75" r="4.75" fill="black" fill-opacity="0.1"/>
<path d="M57 4.75C57 3.71684 56.6631 2.71186 56.0405 1.88739C55.4179 1.06293 54.5434 0.463953 53.5497 0.181265C52.5559 -0.101424 51.4971 -0.0524075 50.5338 0.320882C49.5704 0.694172 48.755 1.37138 48.2112 2.24984C47.6674 3.1283 47.4249 4.16011 47.5203 5.18885C47.6158 6.21759 48.044 7.18716 48.7402 7.95057C49.4363 8.71398 50.3624 9.2296 51.378 9.41927C52.3936 9.60894 53.4433 9.46231 54.3681 9.00161L52.25 4.75H57Z" fill="#BA390C"/>
</svg>