<svg width="25" height="25" viewBox="0 0 25 25" fill="none" xmlns="http://www.w3.org/2000/svg">
<path d="M22.9168 5.20841V9.37508L12.5002 13.5417L2.0835 9.37508V5.20841C2.0835 4.93215 2.19324 4.6672 2.38859 4.47185C2.58394 4.27649 2.8489 4.16675 3.12516 4.16675H21.8752C22.1514 4.16675 22.4164 4.27649 22.6117 4.47185C22.8071 4.6672 22.9168 4.93215 22.9168 5.20841ZM2.0835 11.6188V19.7917C2.0835 20.068 2.19324 20.333 2.38859 20.5283C2.58394 20.7237 2.8489 20.8334 3.12516 20.8334H21.8752C22.1514 20.8334 22.4164 20.7237 22.6117 20.5283C22.8071 20.333 22.9168 20.068 22.9168 19.7917V11.6188L12.5002 15.7855L2.0835 11.6188Z" fill="#BA390C"/>
</svg>
