<svg width="25" height="25" viewBox="0 0 25 25" fill="none" xmlns="http://www.w3.org/2000/svg">
<path d="M1.42692 0H23.5731C24.3238 0 25 0.676228 25 1.42692V23.5731C25 24.3238 24.3238 25 23.5731 25H1.42692C0.676227 25 0 24.3238 0 23.5731V1.42692C0 0.676228 0.676227 0 1.42692 0ZM17.7537 14.0374H21.2069L21.357 10.7344H17.7537V8.2949C17.7537 7.35683 17.941 6.83074 19.1422 6.83074H21.2441L21.3198 3.75228C21.3198 3.75228 20.3817 3.60214 19.0305 3.60214C15.7274 3.60214 14.2632 5.66686 14.2632 7.88171V10.7344H11.8238V14.0374H14.2632V23.1959H17.7537V14.0374Z" fill="#3538CD"/>
</svg>
