<svg width="40" height="40" viewBox="0 0 40 40" fill="none" xmlns="http://www.w3.org/2000/svg">
<rect width="40" height="40" rx="20" fill="#BA390C"/>
<path d="M34.5273 11.0987C34.3408 9.60378 33.2193 9.29235 32.5965 9.29235C31.9738 9.29235 31.3973 9.29235 31.3973 9.29235C31.3973 9.29235 31.164 8.31137 30.4632 8.31137C30.1518 8.31137 28.548 8.31137 28.548 8.31137L27.5514 8C27.178 8.24934 27.6759 8.93417 27.6759 8.93417C27.6759 8.93417 26.9907 9.47933 26.9907 11.597C26.9907 13.7147 26.9907 14.4624 26.9907 15.1472C26.9907 16.5177 24.7628 16.894 23.843 15.4654C22.1949 12.905 20.0767 12.6556 18.7067 10.5383C17.7666 9.0852 16.8033 8.60413 16.1468 8.5839C15.4903 8.56361 14.8569 8.82822 14.4105 9.31007L7.71563 15.8923C6.49874 17.0159 6 18.137 6 19.5075C6 20.8775 6 22.497 6 23.2446C6 23.9919 7.24559 24.1168 7.24559 23.3691C7.24559 22.6218 7.24559 20.1299 7.24559 20.1299C7.24559 20.1299 8.11817 19.5075 8.11817 20.1299C8.11817 20.7531 8.11817 23.9919 8.11817 24.864C8.11817 25.7362 7.12153 26.6083 7.12153 27.1066C7.12153 27.6049 8.86542 32.3382 8.86542 32.3382H10.6093C10.6093 32.3382 9.48821 28.3522 9.48821 27.8539C9.48821 27.4556 10.573 26.1708 11.0949 25.2991C11.0418 26.1075 10.2954 26.9627 10.3431 27.4181C10.395 27.9139 12.622 32.44 12.622 32.44L14.3562 32.2586C14.3562 32.2586 12.8266 28.4109 12.7747 27.9151C12.7228 27.4194 14.2178 25.365 14.3093 24.6232C14.5123 22.9738 14.4283 23.6088 14.4283 23.6088C14.3739 23.0903 14.5638 22.7287 14.9338 22.4971C16.9701 22.4971 19.5815 22.4971 20.4258 22.4971C21.5469 22.4971 21.422 23.3692 21.298 23.8675C21.1731 24.3658 20.2018 27.1064 20.2018 27.1064L20.3263 32.3384H22.0702C22.0702 32.3384 22.195 27.7292 22.195 27.3557C22.195 27.2262 22.4267 26.7342 22.73 26.1199C22.7743 26.6722 22.8178 27.1064 22.8178 27.1064L23.5651 32.3384H25.3089C25.3089 32.3384 24.811 27.7292 24.811 27.3557C24.811 27.0388 25.1098 23.3148 25.2507 21.7359C29.4609 21.5933 31.0418 19.3831 31.0418 14.1013C31.0418 12.4819 31.2912 12.4815 31.8516 12.4815C32.4119 12.4815 33.3443 12.5932 33.8423 12.4068C34.341 12.2202 34.2161 11.784 34.2161 11.784C34.2161 11.784 34.5897 11.7214 34.5273 11.0987Z" fill="white"/>
</svg>
